<?xml version="1.0" encoding="utf-8"?>
<!-- Generator: Adobe Illustrator 27.2.0, SVG Export Plug-In . SVG Version: 6.00 Build 0)  -->
<svg version="1.1" id="Online" xmlns="http://www.w3.org/2000/svg" xmlns:xlink="http://www.w3.org/1999/xlink" x="0px" y="0px"
	 viewBox="0 0 64 64" style="enable-background:new 0 0 64 64;" xml:space="preserve">
<style type="text/css">
	.st0{fill:#CA0123;}
	.st1{fill:#FFFFFF;}
</style>
<path id="Background" class="st0" d="M32,4L32,4c15.5,0,28,12.5,28,28l0,0c0,15.5-12.5,28-28,28l0,0C16.5,60,4,47.5,4,32l0,0
	C4,16.5,16.5,4,32,4z"/>
<g>
	<rect x="26" y="27.2" class="st1" width="12" height="2"/>
	<rect x="26" y="31.8" class="st1" width="12" height="2"/>
	<path class="st1" d="M44.7,19.4c-0.1-0.1-0.4-0.4-0.9-0.4H20.1c-0.3,0-0.5,0.1-0.7,0.3l-0.1,0.1c-0.2,0.2-0.3,0.4-0.3,0.7V44
		c0,0.6,0.4,1,1,1h0.2c0.2,0,0.5-0.1,0.6-0.2l4.5-3.7h7.7v-2H25c-0.2,0-0.5,0.1-0.6,0.2L21,42.1V21h22v18.1h-2.6
		c-0.4-0.9-1.3-1.5-2.3-1.5c-1.4,0-2.5,1.1-2.5,2.5c0,1.4,1.1,2.5,2.5,2.5c1,0,1.9-0.6,2.3-1.5h3.5c0.6,0,1.1-0.5,1.1-1.1V20.1
		C45,19.8,44.9,19.6,44.7,19.4z"/>
</g>
</svg>
