<?xml version="1.0" encoding="utf-8"?>
<!-- Generator: Adobe Illustrator 27.2.0, SVG Export Plug-In . SVG Version: 6.00 Build 0)  -->
<svg version="1.1" id="Offline_00000014616927370014205900000006940387761132402619_"
	 xmlns="http://www.w3.org/2000/svg" xmlns:xlink="http://www.w3.org/1999/xlink" x="0px" y="0px" viewBox="0 0 64 64"
	 style="enable-background:new 0 0 64 64;" xml:space="preserve">
<style type="text/css">
	.st0{fill:#929292;}
	.st1{fill:none;stroke:#FFFFFF;stroke-width:2;stroke-miterlimit:10;}
	.st2{fill:#FFFFFF;}
	.st3{fill:none;stroke:#FFFFFF;stroke-width:2;}
</style>
<circle class="st0" cx="31.5" cy="32" r="28"/>
<g id="Offline_00000168086471994586412580000009447841662881221537_" transform="translate(-1996.001 -7.001)">
	<g id="Status-2" transform="translate(2037 47)">
		<circle class="st0" cx="10.5" cy="11" r="7"/>
	</g>
</g>
<line id="Line_157_00000073716940393855805060000010995596696805914043_" class="st1" x1="25.5" y1="28" x2="37.5" y2="28"/>
<line id="Line_158_00000169545795507550727420000012156865863544957080_" class="st1" x1="25.5" y1="32" x2="37.5" y2="32"/>
<path id="Path_1_00000055671543731346241390000012052309409909576864_" class="st1" d="M31.5,40h-6c-0.1,0-0.3,0.1-0.4,0.2L19.7,44
	c-0.1,0.1-0.2,0-0.2-0.1V20.1c0-0.1,0.1-0.1,0.1-0.1h23.7c0.1,0,0.1,0.1,0.1,0.1v19.7c0,0.1-0.1,0.2-0.1,0.2h-4.9"/>
<path id="Path_2_00000082344746719335635290000011908859777095211437_" class="st2" d="M35.1,40c0-1.3,1.1-2.4,2.4-2.4
	s2.4,1.1,2.4,2.4s-1.1,2.4-2.4,2.4S35.1,41.3,35.1,40"/>
<g>
	<path class="st2" d="M51.5,44c3.9,0,7,3.1,7,7s-3.1,7-7,7s-7-3.1-7-7S47.6,44,51.5,44 M51.5,42c-5,0-9,4-9,9s4,9,9,9s9-4,9-9
		S56.5,42,51.5,42L51.5,42z"/>
</g>
<g id="X" transform="translate(-11.001 79)">
	<line id="Line_160" class="st3" x1="59.7" y1="-30.8" x2="65.3" y2="-25.2"/>
	<line id="Line_161" class="st3" x1="65.3" y1="-30.8" x2="59.7" y2="-25.2"/>
</g>
</svg>
