<?xml version="1.0" encoding="UTF-8"?>
<svg id="Layer_1" data-name="Layer 1" xmlns="http://www.w3.org/2000/svg" viewBox="0 0 43.75 56">
  <defs>
    <style>
      .cls-1 {
        fill: #ca0123;
      }
    </style>
  </defs>
  <g id="Outlined">
    <g>
      <path d="m25.38,0c-5.68,0-10.96,2.57-14.47,7.05l1.38,1.08c3-3.82,7.41-6.1,12.22-6.35v2.6h1.75V1.77c8.47.44,15.29,7.25,15.73,15.73h-2.6v1.75h2.6c-.44,8.47-7.25,15.29-15.73,15.73v-2.6h-1.75v2.6c-1.67-.09-3.31-.42-4.88-1l-.61,1.64c2.03.75,4.17,1.13,6.36,1.13,10.13,0,18.38-8.24,18.38-18.38S35.51,0,25.38,0Z"/>
      <path d="m24.25,16.01l-6.13-6.13-1.24,1.24,6.13,6.13c.26-.54.7-.98,1.24-1.24Z"/>
      <path d="m30.01,12.51l-3.5,3.5c.54.26.98.7,1.24,1.24l3.5-3.5-1.24-1.24Z"/>
      <path class="cls-1" d="m26.5,16.01c-.34-.16-.72-.26-1.13-.26s-.79.09-1.13.26c-.54.26-.98.7-1.24,1.24-.16.34-.26.72-.26,1.13,0,1.45,1.18,2.62,2.62,2.62s2.62-1.18,2.62-2.62c0-.4-.09-.79-.26-1.13-.26-.54-.7-.98-1.24-1.24Z"/>
      <path d="m8.75,19.25c2.89,0,5.25-2.36,5.25-5.25s-2.36-5.25-5.25-5.25-5.25,2.36-5.25,5.25,2.36,5.25,5.25,5.25Zm0-8.75c1.93,0,3.5,1.57,3.5,3.5s-1.57,3.5-3.5,3.5-3.5-1.57-3.5-3.5,1.57-3.5,3.5-3.5Z"/>
      <rect x="3.5" y="31.5" width="1.75" height="24.5"/>
      <rect x="12.25" y="31.5" width="1.75" height="24.5"/>
      <rect x="7.88" y="40.25" width="1.75" height="15.75"/>
      <path d="m12.25,21h-7c-2.89,0-5.25,2.36-5.25,5.25v12.25h1.75v-12.25c0-1.93,1.57-3.5,3.5-3.5h7c1.93,0,3.5,1.57,3.5,3.5v12.25h1.75v-12.25c0-2.89-2.36-5.25-5.25-5.25Z"/>
    </g>
  </g>
</svg>