<svg xmlns="http://www.w3.org/2000/svg"
    xmlns:xlink="http://www.w3.org/1999/xlink"
    viewBox="0 0 55 70">
  <title>File Icon</title>
  <defs>
    <path d="M5,0 L50,0 C52.7614237,-5.07265313e-16 55,2.23857625 55,5 L55,65 C55,67.7614237 52.7614237,70 50,70 L5,70 C2.23857625,70 3.38176876e-16,67.7614237 0,65 L0,5 C-3.38176876e-16,2.23857625 2.23857625,-2.15726995e-15 5,-2.66453526e-15 Z" id="path-1"></path>
  </defs>
  <g id="Detail-Pages---Master-Examples" stroke="none" stroke-width="1" fill="none" fill-rule="evenodd">
    <g id="DetailMaster_desktop-Copy" transform="translate(-78.000000, -1360.000000)">
      <g id="ic_file-png" transform="translate(78.000000, 1360.000000)">
        <mask id="mask-2" fill="white">
          <use xlink:href="#path-1"></use>
        </mask>
        <g id="Mask"></g>
        <path d="M40,0 L55,15 L55,70 L0,70 L0,0 L40,0 Z" id="Shape-1" fill="#FFFFFF" mask="url(#mask-2)"></path>
        <path d="M40,0 L55,15 L45,15 C42.2385763,15 40,12.7614237 40,10 L40,0 Z" id="Shape-4" fill="#1A252A" opacity="0.200000003" mask="url(#mask-2)"></path>
        <path d="M27.499975,25.953168 C29.3320021,25.953168 31.0273103,26.411175 32.5859003,27.3271882 C34.1444904,28.2432014 35.3817923,29.4805034 36.2978056,31.0390934 C37.2138188,32.5976834 37.6718257,34.2929917 37.6718257,36.1250188 C37.6718257,37.9570459 37.2138188,39.6523541 36.2978056,41.2109441 C35.3817923,42.7695342 34.1444904,44.0068361 32.5859003,44.9228494 C31.0273103,45.8388626 29.3320021,46.2968695 27.499975,46.2968695 C25.6679479,46.2968695 23.9726396,45.8388626 22.4140496,44.9228494 C20.8554596,44.0068361 19.6181576,42.7695342 18.7021444,41.2109441 C17.7861311,39.6523541 17.3281242,37.9570459 17.3281242,36.1250188 C17.3281242,34.2929917 17.7861311,32.5976834 18.7021444,31.0390934 C19.6181576,29.4805034 20.8554596,28.2432014 22.4140496,27.3271882 C23.9726396,26.411175 25.6679479,25.953168 27.499975,25.953168 Z M27.499975,44.3281242 C28.9765339,44.3281242 30.343718,43.9589845 31.6015277,43.220705 C32.8593374,42.4824255 33.8573817,41.4843812 34.5956612,40.2265715 C35.3339407,38.9687618 35.7030804,37.6015778 35.7030804,36.1250188 C35.7030804,34.6484598 35.3339407,33.2812758 34.5956612,32.0234661 C33.8573817,30.7656563 32.8593374,29.7676121 31.6015277,29.0293326 C30.343718,28.2910531 28.9765339,27.9219133 27.499975,27.9219133 C26.023416,27.9219133 24.656232,28.2910531 23.3984222,29.0293326 C22.1406125,29.7676121 21.1425682,30.7656563 20.4042888,32.0234661 C19.6660093,33.2812758 19.2968695,34.6484598 19.2968695,36.1250188 C19.2968695,37.6015778 19.6660093,38.9687618 20.4042888,40.2265715 C21.1425682,41.4843812 22.1406125,42.4824255 23.3984222,43.220705 C24.656232,43.9589845 26.023416,44.3281242 27.499975,44.3281242 Z M32.8319935,35.8789256 C32.9140246,35.9609567 32.9550401,36.0703316 32.9550401,36.2070498 C32.9550401,36.343768 32.9140246,36.4668146 32.8319935,36.5761896 L27.8691147,41.5390684 C27.7597398,41.6484433 27.6366932,41.7031305 27.499975,41.7031305 C27.3632568,41.7031305 27.2538818,41.6484433 27.1718507,41.5390684 L22.1679564,36.5761896 C22.0859254,36.4668146 22.0449098,36.343768 22.0449098,36.2070498 C22.0449098,36.0703316 22.0859254,35.9609567 22.1679564,35.8789256 L22.988267,35.0586151 C23.070298,34.976584 23.179673,34.9355685 23.3163912,34.9355685 C23.4531094,34.9355685 23.576156,34.976584 23.6855309,35.0586151 L26.4335713,37.9707175 L26.4335713,31.3672176 C26.4335713,31.2304994 26.4814229,31.1142883 26.5771256,31.0185856 C26.6728283,30.9228829 26.7890394,30.8750313 26.9257576,30.8750313 L28.0741923,30.8750313 C28.2109106,30.8750313 28.3271216,30.9228829 28.4228243,31.0185856 C28.518527,31.1142883 28.5663787,31.2304994 28.5663787,31.3672176 L28.5663787,37.9707175 L31.314419,35.0586151 C31.4237939,34.976584 31.5468405,34.9355685 31.6835587,34.9355685 C31.820277,34.9355685 31.9296519,34.976584 32.011683,35.0586151 L32.8319935,35.8789256 Z" id="-copy" fill="#ca0123" mask="url(#mask-2)"></path>
      </g>
    </g>
  </g>
</svg>
