<?xml version="1.0" encoding="UTF-8"?>
<svg width="1280px" height="612px" viewBox="0 0 1280 612" version="1.1" xmlns="http://www.w3.org/2000/svg" xmlns:xlink="http://www.w3.org/1999/xlink">
    <!-- Generator: Sketch 62 (91390) - https://sketch.com -->
    <title>lines</title>
    <desc>Created with Sketch.</desc>
    <g id="Page-1" stroke="none" stroke-width="1" fill="none" fill-rule="evenodd">
        <g id="1366" transform="translate(-80.000000, -48.000000)">
            <g id="Criteria" transform="translate(80.000000, 48.000000)">
                <g id="lines">
                    <rect id="Mask" fill-opacity="0.01" fill="#FFFFFF" x="0" y="0" width="1280" height="612"></rect>
                    <g id="Group-3" transform="translate(175.000000, 125.000000)" stroke="#67B1E2" stroke-dasharray="4,9" stroke-linecap="round" stroke-width="3">
                        <path d="M165.542969,167.757812 L199,167.757812 L199,69 L235.9375,69" id="Path-3"></path>
                        <path d="M699,175.757812 L732.457031,175.757812 L732.457031,77 L778.394531,77" id="Path-3-Copy" transform="translate(738.697266, 126.378906) scale(-1, 1) translate(-738.697266, -126.378906) "></path>
                        <line x1="697.9375" y1="0.5" x2="939.375" y2="0.5" id="Path-2-Copy" transform="translate(818.937500, 0.500000) scale(-1, 1) translate(-818.937500, -0.500000) "></line>
                        <line x1="694.4375" y1="372.5" x2="937.375" y2="372.5" id="Path-4-Copy" transform="translate(815.937500, 372.500000) scale(-1, 1) translate(-815.937500, -372.500000) "></line>
                        <line x1="0" y1="0.5" x2="335.9375" y2="0.5" id="Path-2"></line>
                        <line x1="20" y1="372.5" x2="239.5" y2="372.5" id="Path-4"></line>
                    </g>
                </g>
            </g>
        </g>
    </g>
</svg>