<?xml version="1.0" encoding="UTF-8"?>
<svg width="70px" height="74px" viewBox="0 0 70 74" version="1.1" xmlns="http://www.w3.org/2000/svg" xmlns:xlink="http://www.w3.org/1999/xlink">
    <!-- Generator: Sketch 62 (91390) - https://sketch.com -->
    <title>Sustainability_ULBlack-RGB_MD</title>
    <desc>Created with Sketch.</desc>
    <g id="Schedule-a-Demo---PurView" stroke="none" stroke-width="1" fill="none" fill-rule="evenodd" stroke-linecap="round" stroke-linejoin="round">
        <g id="smart-buildings-mockup-001" transform="translate(-1334.000000, -2847.000000)" stroke-width="2">
            <g id="Criteria" transform="translate(-1.000000, 2172.000000)">
                <g id="istockphoto-1186446649-1024x1024-sustainability" transform="translate(1295.000000, 638.000000)">
                    <g id="Sustainability_ULBlack-RGB_MD" transform="translate(41.000000, 38.000000)">
                        <path d="M67.5,58.5 L54,47.25 L20.25,47.25 C20.25,47.25 20.06,54 29.25,54 L40.5,54 C44.01,54 44.01,58.5 40.5,58.5 L21.5,58.5 L12.29,49.5 C10.97,48.2 7.69,45 3.66,45 C0.66,45 -1,46.63 0.78,48.38 C4.26,51.81 19.13,67.5 19.13,67.5 L46.13,67.5 L51.39,72 L67.5,58.5 Z" id="Path" stroke="#00518A"></path>
                        <path d="M33.75,38.4 C25.81,38.4 18.01,34.92 17.9999952,24.75 C17.99,11.51 33.75,0 33.75,0 L33.9999952,0 C33.9999952,0 49.49,11.51 49.4999952,24.75 C49.4999952,34.92 41.98,38.39 34.04,38.4 L33.75,38.4 Z" id="Path" stroke="#67B1E2"></path>
                        <line x1="33.75" y1="13.5" x2="33.76" y2="38.25" id="Path" stroke="#67B1E2"></line>
                        <line x1="33.75" y1="27" x2="40.5" y2="20.25" id="Path" stroke="#67B1E2"></line>
                        <line x1="33.75" y1="27" x2="27" y2="20.25" id="Path" stroke="#67B1E2"></line>
                    </g>
                </g>
            </g>
        </g>
    </g>
</svg>