<?xml version="1.0" encoding="UTF-8"?>
<svg width="74px" height="61px" viewBox="0 0 74 61" version="1.1" xmlns="http://www.w3.org/2000/svg" xmlns:xlink="http://www.w3.org/1999/xlink">
    <!-- Generator: Sketch 62 (91390) - https://sketch.com -->
    <title>Computer_ULBlack-RGB_MD</title>
    <desc>Created with Sketch.</desc>
    <g id="Schedule-a-Demo---PurView" stroke="none" stroke-width="1" fill="none" fill-rule="evenodd" stroke-linejoin="round">
        <g id="smart-buildings-mockup-001" transform="translate(-763.000000, -1133.000000)" stroke="#00518A" stroke-width="2">
            <g id="how-it-works" transform="translate(102.000000, 842.000000)">
                <g id="Computer_ULBlack-RGB_MD" transform="translate(662.000000, 292.000000)">
                    <path d="M66.38,1.77809156e-15 L5.62,1.77809156e-15 C4.11705525,-0.0418116361 2.663164,0.536856807 1.6000104,1.6000104 C0.536856807,2.663164 -0.0418116361,4.11705525 -5.32907052e-15,5.62 L-5.32907052e-15,43.87 C-0.0446155579,45.3746546 0.532813713,46.8311931 1.59628624,47.896558 C2.65975876,48.9619228 4.11526846,49.5419405 5.62,49.5 L66.38,49.5 C67.8847315,49.5419405 69.3402412,48.9619228 70.4037138,47.896558 C71.4671863,46.8311931 72.0446156,45.3746546 72,43.87 L72,5.62 C72.0418116,4.11705525 71.4631432,2.663164 70.3999896,1.6000104 C69.336836,0.536856807 67.8829448,-0.0418116361 66.38,1.77809156e-15 Z" id="Path" stroke-linecap="round"></path>
                    <line x1="18" y1="58.7" x2="54" y2="58.7" id="Path" stroke-linecap="round"></line>
                    <line x1="47.25" y1="49.5" x2="47.25" y2="58.7" id="Path"></line>
                    <line x1="24.75" y1="49.5" x2="24.75" y2="58.7" id="Path"></line>
                    <line x1="0" y1="41.62" x2="72" y2="41.62" id="Path" stroke-linecap="round"></line>
                    <polyline id="Path" stroke-linecap="round" points="25 23.25 34 32.25 52 12"></polyline>
                </g>
            </g>
        </g>
    </g>
</svg>