<?xml version="1.0" encoding="UTF-8"?>
<svg width="74px" height="56px" viewBox="0 0 74 56" version="1.1" xmlns="http://www.w3.org/2000/svg" xmlns:xlink="http://www.w3.org/1999/xlink">
    <!-- Generator: Sketch 62 (91390) - https://sketch.com -->
    <title>Wifi_ULBlack-RGB_MD</title>
    <desc>Created with Sketch.</desc>
    <g id="Schedule-a-Demo---PurView" stroke="none" stroke-width="1" fill="none" fill-rule="evenodd" stroke-linecap="round" stroke-linejoin="round">
        <g id="smart-buildings-mockup-001" transform="translate(-1332.000000, -2514.000000)" stroke-width="2">
            <g id="Criteria" transform="translate(-1.000000, 2172.000000)">
                <g id="1088027-connectivity" transform="translate(1295.000000, 295.000000)">
                    <g id="Wifi_ULBlack-RGB_MD" transform="translate(39.000000, 47.000000)">
                        <path d="M36,41.5 C32.2720779,41.5 29.25,44.5220779 29.25,48.25 C29.25,51.9779221 32.2720779,55 36,55 C39.7279221,55 42.75,51.9779221 42.75,48.25 C42.7444928,44.5243615 39.7256385,41.5055072 36,41.5 L36,41.5 Z" id="Path" stroke="#00518A"></path>
                        <path d="M72,16.75 C62.7242192,6.70449353 49.6730505,0.991540277 36,0.991540277 C22.3269495,0.991540277 9.27578078,6.70449353 -1.42108547e-14,16.75" id="Path" stroke="#67B1E2"></path>
                        <path d="M61.88,25.75 C55.1864261,18.5735752 45.8135113,14.4987179 36,14.4987179 C26.1864887,14.4987179 16.8135739,18.5735752 10.12,25.75" id="Path" stroke="#67B1E2"></path>
                        <path d="M51.75,34.75 C47.644846,30.4395883 41.9524734,28 36,28 C30.0475266,28 24.355154,30.4395883 20.25,34.75" id="Path" stroke="#67B1E2"></path>
                    </g>
                </g>
            </g>
        </g>
    </g>
</svg>