<?xml version="1.0" encoding="UTF-8"?>
<svg width="74px" height="47px" viewBox="0 0 74 47" version="1.1" xmlns="http://www.w3.org/2000/svg" xmlns:xlink="http://www.w3.org/1999/xlink">
    <!-- Generator: Sketch 62 (91390) - https://sketch.com -->
    <title>Group 10</title>
    <desc>Created with Sketch.</desc>
    <g id="Schedule-a-Demo---PurView" stroke="none" stroke-width="1" fill="none" fill-rule="evenodd" stroke-linecap="round">
        <g id="smart-buildings-mockup-001" transform="translate(-1222.000000, -1144.000000)" stroke="#00518A" stroke-width="2">
            <g id="how-it-works" transform="translate(102.000000, 842.000000)">
                <g id="icons" transform="translate(196.000000, 286.000000)">
                    <g id="Group-10" transform="translate(925.000000, 17.000000)">
                        <path d="M34,32 L39.4488848,41.28 L39.7862454,41.65 C40.6105477,42.5034605 41.7551233,42.9910296 42.9553903,43 C43.6540797,42.9881826 44.3455675,42.8596665 45,42.62" id="Path"></path>
                        <path d="M9,34 L15.925166,34 L20.5419433,42.2346443 C21.625888,44.0996236 23.7691666,45.176211 26,44.9762735" id="Path"></path>
                        <polyline id="Path" points="0 0 9 0 9 38 0 38"></polyline>
                        <line x1="28" y1="4.5" x2="9" y2="4.5" id="Path"></line>
                        <path d="M51.0011385,39 L54.2193548,35.4172489 M62.9487666,4.54118018 L49.6937381,0.0124217375 L35.7950664,0.0124217375 C35.4330171,0.0124217375 31.8326376,-0.410262384 28.5842505,3.67568412 L19,16.1851213 L19.2514231,16.7084445 C19.3218216,16.8493392 20.9409867,20.1201092 24.0787476,20.8648384 C25.9593928,21.3177142 27.9406072,20.7641993 29.9519924,19.2244215 L36.9214421,11.3443818 L42.5834915,11.3443818 L56.1603416,33.9781101 L62.9487666,33.9781101 M72,0.0224856451 L62.9487666,0.0224856451 L62.9487666,38.5068685 L72,38.5068685" id="Shape"></path>
                        <path d="M27,36 L30.1703704,41.9086294 C31.005476,43.1984802 32.4063862,43.9811834 33.9135802,44 C34.2800096,43.9984316 34.6448703,43.9506983 35,43.857868" id="Path"></path>
                        <path d="M41,27 L45.1563236,33.556701 L48.8531029,39.3092784 C49.3489942,39.8882537 49.9572282,40.3584192 50.64022,40.6907216 C51.0668862,40.8875615 51.5293733,40.9928746 51.9984289,41 L52.3456402,41 C52.938781,40.9261563 53.5059236,40.7105703 54,40.371134" id="Path"></path>
                    </g>
                </g>
            </g>
        </g>
    </g>
</svg>