<?xml version="1.0" encoding="UTF-8"?>
<svg width="68px" height="79px" viewBox="0 0 68 79" version="1.1" xmlns="http://www.w3.org/2000/svg" xmlns:xlink="http://www.w3.org/1999/xlink">
    <!-- Generator: Sketch 62 (91390) - https://sketch.com -->
    <title>HealthyLivingEnv_ULBlack-RGB_MD</title>
    <desc>Created with Sketch.</desc>
    <g id="Schedule-a-Demo---PurView" stroke="none" stroke-width="1" fill="none" fill-rule="evenodd" stroke-linecap="round">
        <g id="smart-buildings-mockup-001" transform="translate(-366.000000, -2693.000000)" stroke-width="2">
            <g id="Criteria" transform="translate(-1.000000, 2172.000000)">
                <g id="HealthyLivingEnv_ULBlack-RGB_MD" transform="translate(368.000000, 522.000000)">
                    <g id="Group" transform="translate(24.000000, 0.000000)" stroke="#67B1E2" stroke-linejoin="round">
                        <path d="M2.86,16.71 C7.32,10.37 13.34,5.34 19.51,0.94 C27.27,5.93 34.69,12.94 38.93,21.2 C42.12,27.41 43.23,35.01 40.01,41.46 C36.94,47.61 30.46,51 23.87,51.97 C15.3,53.23 5.13,50.83 0.1,43.23" id="Path"></path>
                        <line x1="19.54" y1="17.75" x2="19.54" y2="56.46" id="Path"></line>
                        <polyline id="Path" points="9.76 32.24 19.54 42.02 30.74 30.81"></polyline>
                        <polyline id="Path" points="13.01 22.41 19.54 28.95 26.08 22.41"></polyline>
                    </g>
                    <path d="M59.25,65.8 L48.05,56.46 L20.04,56.46 C20.04,56.46 19.89,62.06 27.51,62.06 C35.13,62.06 33.93,62.06 36.85,62.06 C39.76,62.06 39.76,65.79 36.85,65.79 C33.94,65.79 21.05,65.79 21.05,65.79 C21.05,65.79 16.35,61.19 13.41,58.32 C12.31,57.24 9.59,54.59 6.25,54.59 C3.72,54.59 2.38,55.94 3.86,57.39 C6.77,60.24 19.11,73.26 19.11,73.26 L41.51,73.22 L45.88,77 L59.25,65.8 Z" id="Path" stroke="#00518A" stroke-linejoin="round"></path>
                    <path d="M33.02,19.82 C31.34,18.11 29.03,17.26 26.07,17.26 C21.63,17.26 18.42,21.72 17.79,21.72 C17.17,21.72 13.95,17.26 9.51,17.26 C6.56,17.26 4.24,18.12 2.56,19.82 C0.88,21.53 0.05,23.57 0.05,26.59 C0.05,29.64 1.7,32.77 4.72,35.93 C4.72,35.93 17.45,49 17.79,49 C18.13,49 30.86,35.93 30.86,35.93 C33.88,32.77 35.53,29.64 35.53,26.59 C35.53,23.56 34.69,21.52 33.02,19.82 Z" id="Path" stroke="#00518A"></path>
                </g>
            </g>
        </g>
    </g>
</svg>