
<svg width="32px" height="32px" viewBox="0 0 32 32" version="1.1" xmlns="http://www.w3.org/2000/svg" xmlns:xlink="http://www.w3.org/1999/xlink">
    <!-- Generator: Sketch 50 (54983) - http://www.bohemiancoding.com/sketch -->
    <desc>Created with Sketch.</desc>
    <defs></defs>
    <g id="Symbols" stroke="none" stroke-width="1" fill="none" fill-rule="evenodd">
        <g id="Navigation/mobile" transform="translate(-272.000000, -15.000000)" fill="#000000">
            <g id="topNav">
                <g id="logo" transform="translate(272.000000, 15.000000)">
                    <path d="M31.1206897,15.5603448 C31.1206897,24.154086 24.154086,31.1206897 15.5603448,31.1206897 C6.96660368,31.1206897 0,24.154086 0,15.5603448 C0,6.96660368 6.96660368,0 15.5603448,0 C24.154086,0 31.1206897,6.96660368 31.1206897,15.5603448 Z M15.5603448,2.79197044 C8.5091732,2.79197046 2.79302332,8.50798767 2.79285964,15.5591593 C2.79269596,22.6103309 8.50858047,28.3266135 15.5597521,28.3269409 C22.6109237,28.3272682 28.327339,22.6115164 28.32783,15.5603448 C28.32783,8.50905745 22.6116322,2.79285961 15.5603448,2.79285961 L15.5603448,2.79197044 Z M23.4276552,21.3932512 L20.1484236,21.3932512 L20.1484236,11.8507586 L17.3440049,11.8507586 L17.3440049,24.0518473 L23.4285443,24.0518473 L23.4285443,21.3932512 L23.4276552,21.3932512 Z M15.4394187,7.2555665 L12.6367783,7.2555665 L12.6367783,16.3063522 C12.6657859,16.5784912 12.577844,16.850144 12.394855,17.0536535 C12.2118661,17.257163 11.9510525,17.3733755 11.6773719,17.3733473 C11.4074048,17.3656368 11.1526416,17.2466394 10.9734631,17.0445584 C10.7942845,16.8424773 10.7066404,16.5753011 10.731303,16.3063522 L10.731303,7.25289901 L7.93666502,7.25289901 L7.93666502,16.1925394 C7.93666502,18.4474557 9.60295567,19.5793596 11.7040468,19.5793596 C13.8264778,19.5793596 15.4385296,18.4181133 15.4385296,16.1925394 L15.4385296,7.25289901 L15.4394187,7.2555665 Z"></path>
                </g>
            </g>
        </g>
    </g>
</svg>
